<svg width="22" height="22" viewBox="0 0 22 22" fill="none" xmlns="http://www.w3.org/2000/svg">
<path d="M8.55555 0H1.22222C0.898069 0 0.587192 0.128769 0.357981 0.357981C0.128769 0.587192 0 0.898069 0 1.22222V8.55555C0 8.87971 0.128769 9.19059 0.357981 9.4198C0.587192 9.64901 0.898069 9.77778 1.22222 9.77778H8.55555C8.87971 9.77778 9.19059 9.64901 9.4198 9.4198C9.64901 9.19059 9.77778 8.87971 9.77778 8.55555V1.22222C9.77778 0.898069 9.64901 0.587192 9.4198 0.357981C9.19059 0.128769 8.87971 0 8.55555 0ZM7.33333 7.33333H2.44444V2.44444H7.33333V7.33333ZM20.7778 0H13.4444C13.1203 0 12.8094 0.128769 12.5802 0.357981C12.351 0.587192 12.2222 0.898069 12.2222 1.22222V8.55555C12.2222 8.87971 12.351 9.19059 12.5802 9.4198C12.8094 9.64901 13.1203 9.77778 13.4444 9.77778H20.7778C21.1019 9.77778 21.4128 9.64901 21.642 9.4198C21.8712 9.19059 22 8.87971 22 8.55555V1.22222C22 0.898069 21.8712 0.587192 21.642 0.357981C21.4128 0.128769 21.1019 0 20.7778 0ZM19.5556 7.33333H14.6667V2.44444H19.5556V7.33333ZM8.55555 12.2222H1.22222C0.898069 12.2222 0.587192 12.351 0.357981 12.5802C0.128769 12.8094 0 13.1203 0 13.4444V20.7778C0 21.1019 0.128769 21.4128 0.357981 21.642C0.587192 21.8712 0.898069 22 1.22222 22H8.55555C8.87971 22 9.19059 21.8712 9.4198 21.642C9.64901 21.4128 9.77778 21.1019 9.77778 20.7778V13.4444C9.77778 13.1203 9.64901 12.8094 9.4198 12.5802C9.19059 12.351 8.87971 12.2222 8.55555 12.2222ZM7.33333 19.5556H2.44444V14.6667H7.33333V19.5556ZM17.1111 12.2222C14.4149 12.2222 12.2222 14.4149 12.2222 17.1111C12.2222 19.8073 14.4149 22 17.1111 22C19.8073 22 22 19.8073 22 17.1111C22 14.4149 19.8073 12.2222 17.1111 12.2222ZM17.1111 19.5556C15.763 19.5556 14.6667 18.4592 14.6667 17.1111C14.6667 15.763 15.763 14.6667 17.1111 14.6667C18.4592 14.6667 19.5556 15.763 19.5556 17.1111C19.5556 18.4592 18.4592 19.5556 17.1111 19.5556Z" fill="white"/>
</svg>
