<svg width="22" height="22" viewBox="0 0 22 22" fill="none" xmlns="http://www.w3.org/2000/svg">
<path d="M19.5556 12.2222V18.3333C19.5556 19.0056 19.0056 19.5556 18.3333 19.5556H3.66667C2.99444 19.5556 2.44444 19.0056 2.44444 18.3333V12.2222C2.44444 11.55 1.89444 11 1.22222 11C0.55 11 0 11.55 0 12.2222V19.5556C0 20.9 1.1 22 2.44444 22H19.5556C20.9 22 22 20.9 22 19.5556V12.2222C22 11.55 21.45 11 20.7778 11C20.1056 11 19.5556 11.55 19.5556 12.2222ZM12.2222 11.8189L14.52 9.52111C14.6332 9.40795 14.7675 9.3182 14.9153 9.25696C15.0632 9.19572 15.2216 9.1642 15.3817 9.1642C15.5417 9.1642 15.7002 9.19572 15.848 9.25696C15.9958 9.3182 16.1302 9.40795 16.2433 9.52111C16.3565 9.63427 16.4462 9.7686 16.5075 9.91645C16.5687 10.0643 16.6002 10.2228 16.6002 10.3828C16.6002 10.5428 16.5687 10.7013 16.5075 10.8491C16.4462 10.997 16.3565 11.1313 16.2433 11.2444L11.8556 15.6322C11.7425 15.7455 11.6082 15.8354 11.4603 15.8968C11.3125 15.9581 11.154 15.9897 10.9939 15.9897C10.8338 15.9897 10.6753 15.9581 10.5275 15.8968C10.3796 15.8354 10.2453 15.7455 10.1322 15.6322L5.74444 11.2444C5.51592 11.0159 5.38753 10.706 5.38753 10.3828C5.38753 10.0596 5.51592 9.74964 5.74444 9.52111C5.97297 9.29258 6.28292 9.1642 6.60611 9.1642C6.9293 9.1642 7.23925 9.29258 7.46778 9.52111L9.77778 11.8189V1.22222C9.77778 0.55 10.3278 0 11 0C11.6722 0 12.2222 0.55 12.2222 1.22222V11.8189Z" fill="white"/>
</svg>
