<svg width="22" height="22" viewBox="0 0 22 22" fill="none" xmlns="http://www.w3.org/2000/svg">
<path d="M21.7149 11.3469L11.816 0.348111C11.3991 -0.116037 10.5984 -0.116037 10.1815 0.348111L0.282651 11.3469C0.140169 11.5048 0.0466441 11.7008 0.0134494 11.9109C-0.0197454 12.121 0.00881964 12.3362 0.0956714 12.5303C0.271652 12.9274 0.665408 13.1826 1.09986 13.1826H3.29961V20.8817C3.29961 21.1734 3.41549 21.4532 3.62176 21.6594C3.82803 21.8657 4.10779 21.9816 4.39949 21.9816H7.69912C7.99083 21.9816 8.27059 21.8657 8.47685 21.6594C8.68312 21.4532 8.799 21.1734 8.799 20.8817V16.4822H13.1985V20.8817C13.1985 21.1734 13.3144 21.4532 13.5207 21.6594C13.7269 21.8657 14.0067 21.9816 14.2984 21.9816H17.598C17.8897 21.9816 18.1695 21.8657 18.3757 21.6594C18.582 21.4532 18.6979 21.1734 18.6979 20.8817V13.1826H20.8976C21.1107 13.1835 21.3193 13.1224 21.4982 13.0068C21.6771 12.8911 21.8185 12.7259 21.9051 12.5313C21.9918 12.3367 22.0199 12.1211 21.9861 11.9108C21.9523 11.7005 21.8581 11.5046 21.7149 11.3469Z" fill="white"/>
</svg>
