<svg width="32" height="25" viewBox="0 0 32 25" fill="none" xmlns="http://www.w3.org/2000/svg">
<path d="M8.59375 10.9375C9.88817 10.9375 10.9375 9.88817 10.9375 8.59375C10.9375 7.29933 9.88817 6.25 8.59375 6.25C7.29933 6.25 6.25 7.29933 6.25 8.59375C6.25 9.88817 7.29933 10.9375 8.59375 10.9375Z" fill="white"/>
<path d="M13.2812 15.625L10.9375 12.5L6.25 18.75H25L17.9687 9.375L13.2812 15.625Z" fill="white"/>
<path d="M28.125 0H3.125C1.40156 0 0 1.40156 0 3.125V21.875C0 23.5984 1.40156 25 3.125 25H28.125C29.8484 25 31.25 23.5984 31.25 21.875V3.125C31.25 1.40156 29.8484 0 28.125 0ZM3.125 21.875V3.125H28.125L28.1281 21.875H3.125Z" fill="white"/>
</svg>
